<?xml version="1.0" standalone="no"?>
<!DOCTYPE svg PUBLIC "-//W3C//DTD SVG 20010904//EN"
 "http://www.w3.org/TR/2001/REC-SVG-20010904/DTD/svg10.dtd">
<svg version="1.0" xmlns="http://www.w3.org/2000/svg"
 width="1440.000000pt" height="1440.000000pt" viewBox="0 0 1440.000000 1440.000000"
 preserveAspectRatio="xMidYMid meet">

<g transform="translate(0.000000,1440.000000) scale(0.100000,-0.100000)"
fill="#000000" stroke="none">
<path d="M6975 11874 c-320 -31 -524 -64 -753 -119 -189 -46 -202 -53 -202
-111 0 -56 47 -80 117 -59 140 41 415 95 611 119 440 55 886 41 1332 -40 630
-115 1248 -383 1770 -768 234 -172 514 -429 689 -631 47 -55 88 -102 91 -105
38 -37 182 -232 267 -360 637 -957 868 -2116 648 -3245 -51 -262 -119 -491
-228 -770 -47 -120 -252 -540 -290 -596 -10 -13 -58 -87 -109 -164 -172 -264
-323 -450 -558 -686 -164 -165 -278 -268 -427 -384 -57 -43 -63 -51 -63 -85 0
-77 67 -93 146 -33 203 153 488 423 668 633 279 326 530 717 688 1073 229 518
351 1006 388 1552 52 780 -102 1569 -441 2260 -322 658 -786 1215 -1369 1647
-642 475 -1342 751 -2165 854 -123 15 -705 28 -810 18z"/>
<path d="M5120 11719 c-30 -5 -92 -28 -137 -50 -176 -87 -273 -248 -260 -431
10 -156 105 -296 246 -366 72 -36 79 -37 180 -37 122 0 177 15 268 74 131 85
210 208 220 343 22 291 -228 517 -517 467z m189 -253 c64 -45 96 -106 96 -186
0 -54 -5 -72 -29 -110 -37 -59 -93 -98 -158 -112 -204 -42 -348 201 -213 359
53 63 105 85 191 81 59 -3 78 -8 113 -32z"/>
<path d="M4187 11087 c-44 -20 -335 -262 -336 -279 -1 -12 539 -618 551 -618
12 0 158 130 158 141 0 4 -43 55 -96 114 -53 58 -94 108 -93 110 2 2 40 -7 84
-20 44 -12 121 -34 171 -47 l90 -25 95 83 c51 46 95 87 97 93 3 10 -25 17
-250 57 l-156 29 18 35 c47 93 34 173 -44 257 -28 31 -69 64 -91 74 -56 26
-138 24 -198 -4z m124 -226 c44 -45 35 -104 -25 -160 l-26 -25 -65 70 c-35 38
-64 72 -65 76 0 5 19 21 42 38 55 40 99 40 139 1z"/>
<path d="M7005 10963 c-605 -49 -1173 -244 -1685 -578 -196 -128 -358 -262
-551 -454 -153 -154 -231 -239 -283 -310 -12 -16 -41 -55 -66 -87 -284 -373
-506 -849 -619 -1334 -51 -215 -91 -557 -91 -780 l-1 -135 -72 -49 c-205 -141
-521 -386 -677 -525 -252 -225 -370 -385 -370 -503 0 -71 54 -137 134 -165 63
-22 316 -25 446 -5 161 25 391 73 567 117 98 24 178 43 178 42 1 -1 13 -33 27
-72 202 -540 547 -1034 1008 -1440 263 -231 623 -455 955 -593 820 -341 1716
-368 2561 -78 402 138 831 383 1144 654 256 222 498 496 666 752 27 41 52 77
55 80 11 9 95 163 158 289 250 499 381 1050 381 1605 0 816 -275 1599 -786
2241 -120 151 -433 460 -579 573 -568 439 -1196 688 -1895 751 -104 10 -505
13 -605 4z m487 -93 c87 -6 201 -16 255 -23 l98 -12 0 -85 c1 -146 61 -242
188 -303 77 -37 130 -88 170 -164 37 -71 77 -198 77 -244 0 -64 78 -173 159
-221 20 -11 41 -26 46 -32 14 -15 118 -43 250 -67 131 -24 156 -20 339 48 169
62 347 156 473 249 22 16 25 14 164 -122 78 -77 179 -183 225 -238 l83 -98 18
-97 c26 -140 24 -384 -6 -556 -28 -161 -80 -359 -121 -460 -29 -70 -2 -200
111 -537 39 -117 92 -265 117 -328 54 -134 57 -179 23 -285 -52 -158 -198
-429 -388 -716 -114 -173 -127 -205 -127 -304 0 -70 4 -88 32 -141 63 -124
209 -208 429 -250 99 -18 145 -39 186 -82 44 -46 46 -90 7 -159 -206 -365
-558 -761 -915 -1027 -312 -233 -611 -393 -953 -510 -602 -206 -1193 -247
-1827 -126 -191 37 -495 127 -495 147 0 7 11 52 25 100 35 118 44 283 22 370
-22 83 -58 138 -115 174 -74 47 -115 55 -192 35 -36 -9 -85 -16 -110 -16 -57
0 -183 36 -314 90 -125 50 -206 66 -261 51 -69 -19 -104 -47 -131 -106 -30
-66 -24 -68 -153 58 -171 167 -250 257 -407 462 -141 184 -327 521 -418 759
-26 65 -45 120 -43 122 1 1 41 14 87 28 257 74 544 165 770 241 140 47 260 87
266 88 6 1 26 -18 45 -42 61 -79 108 -100 220 -101 48 0 59 -4 71 -22 27 -43
49 -111 58 -182 10 -77 30 -106 77 -106 52 0 279 138 429 261 41 33 76 60 78
58 1 -2 15 -36 30 -76 58 -153 164 -276 288 -337 198 -98 430 -59 571 94 33
35 63 73 69 85 21 46 208 156 411 241 73 30 143 65 155 77 80 74 131 293 132
564 0 324 93 629 322 1054 62 115 69 135 83 225 36 237 4 398 -95 488 -64 58
-100 69 -220 71 -91 1 -112 4 -160 27 -191 90 -498 202 -644 233 -140 31 -308
4 -385 -61 -31 -26 -54 -69 -137 -258 -102 -234 -188 -365 -291 -447 -79 -62
-141 -140 -198 -250 -83 -161 -128 -337 -129 -510 l-1 -96 -115 -7 c-208 -11
-401 -50 -591 -119 -125 -46 -175 -72 -195 -102 -24 -36 -11 -70 52 -138 54
-58 94 -123 94 -152 0 -8 -15 -36 -34 -62 -69 -98 -77 -138 -50 -253 5 -26 4
-26 -383 -152 -389 -127 -629 -201 -696 -213 l-36 -7 -20 69 c-83 283 -119
532 -128 874 l-6 236 108 8 c116 8 276 40 367 75 31 11 90 43 130 69 114 74
161 133 304 380 63 108 184 233 282 291 83 49 165 81 298 115 123 32 187 66
254 135 113 116 146 228 154 535 5 164 11 235 30 325 36 179 52 201 231 320
242 161 302 314 270 679 -8 91 -17 180 -21 197 l-6 30 104 31 c247 74 507 117
823 136 116 7 209 6 357 -3z m616 -91 c344 -83 683 -224 997 -414 135 -82 375
-255 374 -270 0 -16 -144 -104 -264 -161 -60 -29 -164 -71 -229 -93 l-120 -41
-80 10 c-115 16 -161 28 -241 65 -74 33 -150 104 -160 147 -2 13 -12 59 -21
103 -39 194 -131 331 -274 406 -64 33 -92 55 -113 89 -37 58 -43 190 -10 190
8 0 72 -14 141 -31z m-1977 -221 c8 -62 13 -169 13 -238 -2 -138 -21 -221 -68
-289 -32 -45 -135 -132 -235 -195 -92 -59 -117 -86 -151 -161 -56 -123 -79
-269 -86 -550 -6 -255 -37 -359 -132 -447 -55 -51 -100 -71 -237 -108 -207
-55 -353 -136 -470 -262 -62 -66 -119 -149 -208 -303 -129 -222 -292 -315
-609 -347 -65 -7 -120 -9 -124 -5 -9 9 13 221 37 352 155 844 589 1569 1269
2120 166 134 444 309 645 405 84 40 322 139 336 140 4 0 13 -51 20 -112z
m4071 -1255 c312 -464 517 -1062 559 -1637 16 -204 6 -562 -20 -736 -55 -374
-149 -694 -297 -1008 l-43 -93 -38 41 c-51 57 -116 87 -247 115 -249 51 -370
146 -371 290 0 75 14 104 143 300 229 347 369 630 394 795 l11 76 -57 154
c-105 279 -200 568 -230 700 l-15 65 35 109 c86 266 127 503 128 738 1 87 1
158 2 158 0 0 21 -30 46 -67z m-3107 -218 c124 -32 363 -121 519 -193 l121
-55 106 -1 c83 -1 113 -5 140 -20 72 -38 109 -132 109 -276 -1 -116 -23 -231
-55 -286 -82 -140 -207 -412 -261 -569 -67 -192 -92 -334 -99 -572 -7 -197
-19 -301 -45 -387 -33 -105 -52 -125 -165 -171 -137 -57 -277 -128 -355 -181
-90 -61 -92 -63 -127 -114 -102 -148 -262 -210 -431 -166 -147 37 -256 153
-333 350 -33 87 -36 76 37 156 23 25 54 59 68 77 15 17 61 50 104 73 299 161
602 431 803 715 61 86 139 220 139 238 0 10 -10 28 -23 41 -24 24 -98 35 -332
51 -156 11 -460 -21 -665 -71 -89 -21 -303 -94 -316 -107 -43 -43 -25 189 28
353 11 36 43 110 71 165 52 101 66 118 223 265 98 91 202 266 298 500 26 63
54 125 62 137 47 73 206 93 379 48z m93 -1402 c28 -3 52 -9 52 -13 0 -15 -123
-196 -184 -270 -104 -127 -290 -305 -419 -399 -76 -56 -236 -155 -307 -191
-31 -16 -65 -41 -75 -57 -29 -44 -212 -229 -290 -293 -68 -55 -191 -139 -286
-194 l-47 -27 -16 71 c-20 88 -39 133 -83 188 l-34 42 -78 0 c-43 0 -91 5
-107 10 -51 18 -142 177 -152 266 -5 48 16 93 75 155 l35 37 -12 55 c-12 60
-64 154 -112 204 -18 18 -30 35 -27 37 8 8 125 54 189 74 174 56 386 92 541
92 82 0 99 3 171 35 232 102 483 165 738 185 105 8 328 5 428 -7z m-3459 -653
c2 -100 68 -453 112 -599 31 -102 40 -92 -148 -139 -358 -89 -569 -124 -748
-126 -217 -2 -244 21 -166 141 65 100 235 267 433 426 26 21 53 43 60 50 18
17 187 145 326 248 130 95 129 95 131 -1z m1560 -2205 c32 -8 91 -30 132 -48
158 -73 319 -100 422 -72 80 22 120 11 170 -44 47 -52 62 -101 61 -197 0 -89
-49 -304 -69 -304 -20 0 -293 128 -398 186 -197 111 -474 301 -496 342 -11 21
3 98 22 116 39 39 71 43 156 21z"/>
<path d="M8357 6766 c-73 -31 -103 -50 -123 -82 -15 -22 -16 -33 -4 -93 10
-52 10 -79 1 -121 -27 -127 -139 -265 -301 -371 -47 -31 -123 -80 -170 -111
-304 -197 -477 -411 -547 -679 -26 -100 -27 -101 -96 -167 -151 -146 -246
-303 -255 -423 -4 -65 -3 -68 57 -187 80 -155 143 -223 263 -281 121 -58 353
-111 489 -111 103 0 266 117 364 262 27 40 76 97 110 127 33 30 80 73 105 95
25 23 77 68 115 101 39 33 72 63 75 66 3 3 64 53 136 110 138 111 259 198 336
242 85 49 153 148 185 270 21 79 23 252 4 373 -12 83 -12 100 4 180 25 121 24
305 -3 396 -49 171 -168 287 -394 386 -75 33 -93 37 -188 39 -93 3 -112 1
-163 -21z m224 -80 c69 -15 174 -63 252 -116 71 -47 134 -126 165 -205 24 -64
27 -82 27 -200 0 -96 -5 -149 -19 -203 -19 -72 -19 -77 -1 -208 20 -152 17
-244 -15 -345 -30 -97 -66 -140 -183 -216 -108 -70 -221 -153 -327 -241 -103
-86 -240 -203 -295 -253 -27 -25 -77 -70 -111 -100 -34 -30 -85 -89 -114 -132
-58 -85 -128 -154 -205 -199 -47 -28 -54 -29 -131 -24 -165 12 -333 55 -429
112 -71 41 -132 112 -185 216 -55 106 -62 148 -34 214 31 75 104 175 199 271
81 84 98 106 111 153 61 205 93 276 169 377 25 35 86 99 133 143 80 74 144
120 394 284 159 104 285 247 328 375 21 64 30 186 16 228 -6 19 -1 25 33 43
79 40 128 46 222 26z"/>
<path d="M3530 10443 c-63 -82 -140 -180 -172 -220 -32 -39 -58 -76 -58 -81 0
-5 32 -33 72 -63 l71 -53 36 44 c70 85 80 95 88 84 5 -5 44 -38 88 -71 44 -34
130 -100 190 -148 175 -138 215 -168 219 -164 46 51 126 164 123 173 -3 7 -59
54 -124 105 -65 50 -175 137 -246 192 l-127 101 42 52 c23 28 48 58 55 67 12
15 7 22 -39 58 -29 23 -61 48 -71 56 -9 8 -21 15 -25 15 -4 0 -59 -66 -122
-147z"/>
<path d="M3098 9808 c-117 -116 -160 -238 -127 -355 19 -71 105 -154 180 -175
97 -27 153 -8 259 87 106 95 114 100 149 86 90 -38 50 -154 -79 -229 -25 -14
-47 -27 -49 -28 -2 -2 69 -112 106 -163 5 -7 62 28 112 67 51 42 128 156 147
220 20 65 17 169 -5 217 -25 53 -84 109 -144 135 -92 41 -194 23 -272 -47 -16
-15 -51 -46 -77 -70 -57 -52 -98 -58 -124 -18 -15 24 -15 28 1 70 9 25 29 54
43 65 15 12 37 29 50 38 l23 17 -53 77 c-29 43 -56 78 -60 78 -4 0 -40 -33
-80 -72z"/>
<path d="M3230 8885 c-140 -13 -322 -28 -405 -35 -82 -7 -151 -13 -153 -15 -5
-4 -62 -209 -62 -223 0 -6 53 -51 118 -99 265 -196 548 -408 561 -421 7 -7 18
-11 25 -9 10 3 63 172 65 207 1 12 -43 48 -110 91 -8 5 60 262 76 289 3 5 30
10 58 10 90 0 91 1 122 108 15 53 30 103 32 110 7 16 -11 15 -327 -13z m-74
-237 c-3 -13 -14 -51 -22 -86 -10 -36 -22 -62 -28 -60 -15 4 -215 142 -211
146 1 1 54 6 116 11 63 4 122 9 133 10 14 1 17 -4 12 -21z"/>
<path d="M3640 5024 c-162 -43 -295 -195 -318 -361 -23 -170 53 -337 198 -438
35 -24 42 -26 57 -14 10 8 22 17 28 21 5 4 26 20 45 36 19 15 50 38 68 51 17
12 32 26 32 30 0 5 -27 18 -60 30 -136 50 -193 211 -113 325 71 101 193 135
292 81 74 -41 115 -109 118 -192 1 -35 5 -62 10 -61 4 1 50 33 101 72 106 79
105 76 56 181 -35 73 -117 163 -181 198 -102 55 -224 70 -333 41z"/>
<path d="M4156 4367 c-93 -100 -205 -220 -250 -267 -45 -47 -94 -100 -111
-118 l-30 -34 25 -20 c14 -11 90 -82 169 -157 79 -75 148 -138 153 -140 10 -3
127 117 128 130 0 4 -41 45 -90 93 l-91 86 93 97 c98 103 196 207 291 309 l57
61 -72 71 c-40 40 -80 72 -88 71 -8 0 -91 -82 -184 -182z"/>
<path d="M4830 4007 c-81 -11 -169 -57 -231 -119 -98 -98 -135 -200 -127 -351
4 -72 10 -96 37 -151 95 -187 320 -303 516 -267 225 42 389 270 354 494 -13
79 -55 169 -108 229 -45 51 -150 121 -215 144 -58 21 -161 31 -226 21z m161
-232 c96 -34 159 -119 159 -214 0 -240 -319 -308 -430 -91 -32 63 -26 161 14
219 60 86 160 120 257 86z"/>
<path d="M9156 3779 c-130 -32 -264 -136 -318 -247 -31 -63 -33 -73 -33 -178
0 -110 0 -111 43 -197 52 -105 116 -173 203 -218 55 -28 77 -33 159 -37 110
-5 185 15 275 73 193 123 251 326 155 540 l-29 66 -48 -24 c-26 -14 -114 -57
-195 -96 l-148 -71 37 -75 c21 -41 41 -75 45 -75 4 0 40 16 79 35 40 19 74 35
76 35 1 0 3 -20 3 -44 0 -58 -32 -103 -99 -138 -122 -64 -233 -18 -302 127
-58 120 -31 244 64 299 67 39 135 39 193 0 l38 -26 73 78 c40 44 72 85 70 93
-1 8 -33 30 -71 50 -60 30 -81 35 -150 37 -45 2 -98 -1 -120 -7z"/>
<path d="M5617 3642 c-7 -10 -57 -154 -57 -162 0 -3 30 -16 68 -29 37 -12 73
-25 80 -29 11 -7 -68 -242 -193 -575 -13 -36 -13 -38 8 -46 148 -54 179 -63
186 -55 9 10 53 128 152 404 34 96 65 178 69 182 3 5 41 -6 84 -22 43 -17 80
-29 82 -28 8 9 64 171 60 175 -5 5 -120 48 -389 144 -155 55 -144 52 -150 41z"/>
<path d="M8376 3451 c-44 -10 -81 -22 -84 -29 -2 -6 17 -110 42 -232 25 -121
46 -225 46 -231 0 -12 -18 3 -289 234 -101 86 -192 157 -200 156 -56 -2 -196
-37 -199 -50 -2 -13 154 -798 160 -804 2 -2 49 6 106 17 91 19 102 23 102 42
0 12 -20 120 -44 241 -24 121 -43 221 -42 222 1 1 107 -87 236 -197 135 -116
242 -200 253 -200 44 0 197 35 197 44 1 6 -34 190 -77 408 l-78 398 -25 -1
c-14 -1 -61 -9 -104 -18z"/>
<path d="M6263 3257 c-23 -154 -88 -576 -98 -633 l-5 -31 106 -17 c59 -9 109
-15 111 -13 2 3 15 75 28 162 25 157 30 179 43 171 4 -2 59 -11 122 -21 170
-24 162 -21 156 -64 -3 -20 -15 -94 -26 -165 -12 -70 -19 -130 -17 -132 2 -2
34 -8 73 -14 38 -5 85 -13 105 -16 34 -6 37 -4 43 22 8 41 107 699 113 755 l5
45 -90 12 c-130 17 -132 17 -132 -16 0 -16 -4 -53 -10 -83 -5 -30 -15 -87 -21
-128 l-11 -73 -32 6 c-17 4 -80 14 -141 22 -60 9 -114 20 -119 24 -4 5 1 66
13 140 26 161 26 175 4 177 -10 1 -47 6 -83 12 -124 20 -112 33 -137 -142z"/>
<path d="M7253 3078 c4 -128 7 -315 7 -415 l0 -183 112 0 111 0 -6 242 c-4
133 -7 319 -7 415 l0 173 -112 0 -111 0 6 -232z"/>
</g>
</svg>
